HIERARCHY
ROOT pelvis
{
    OFFSET 0.0 92.30645751953125 0.0
    CHANNELS 6 Xposition Yposition Zposition Zrotation Yrotation Xrotation

    JOINT left_hip
    {
        OFFSET -6.248989105224609 -4.701225280761719 -0.8717994093894958
        CHANNELS 3 Zrotation Yrotation Xrotation

        JOINT left_knee
        {
            OFFSET -2.6135339736938477 -40.951927185058594 -0.935908854007721
            CHANNELS 3 Zrotation Yrotation Xrotation

            JOINT left_ankle
            {
                OFFSET 5.2308502197265625 -42.30502700805664 -2.8248653411865234
                CHANNELS 3 Zrotation Yrotation Xrotation

                JOINT left_foot
                {
                    OFFSET -8.184823036193848 -3.588310718536377 11.075987815856934
                    CHANNELS 3 Zrotation Yrotation Xrotation

                    End Site
                    {
                        OFFSET 0 0 0
                    }
                }
            }
        }
    }

    JOINT right_hip
    {
        OFFSET 7.1852521896362305 -4.6518402099609375 0.7767808437347412
        CHANNELS 3 Zrotation Yrotation Xrotation

        JOINT right_knee
        {
            OFFSET 4.842928886413574 -41.17830276489258 -1.5368828773498535
            CHANNELS 3 Zrotation Yrotation Xrotation

            JOINT right_ankle
            {
                OFFSET -1.5648021697998047 -41.35963439941406 -2.1364669799804688
                CHANNELS 3 Zrotation Yrotation Xrotation

                JOINT right_foot
                {
                    OFFSET -0.054290771484375 -3.4659552574157715 14.447348594665527
                    CHANNELS 3 Zrotation Yrotation Xrotation

                    End Site
                    {
                        OFFSET 0 0 0
                    }
                }
            }
        }
    }

    JOINT spine1
    {
        OFFSET 0.49116063117980957 17.12860870361328 -3.4784305095672607
        CHANNELS 3 Zrotation Yrotation Xrotation

        JOINT spine2
        {
            OFFSET -1.1572625637054443 12.263778686523438 2.4951388835906982
            CHANNELS 3 Zrotation Yrotation Xrotation

            JOINT spine3
            {
                OFFSET -0.3846161365509033 3.2077560424804688 3.636476516723633
                CHANNELS 3 Zrotation Yrotation Xrotation

                JOINT left_collar
                {
                    OFFSET -7.084173202514648 9.608245849609375 -2.91937518119812
                    CHANNELS 3 Zrotation Yrotation Xrotation

                    JOINT left_shoulder
                    {
                        OFFSET -12.792165756225586 -1.131744384765625 -4.082871913909912
                        CHANNELS 3 Zrotation Yrotation Xrotation

                        JOINT left_elbow
                        {
                            OFFSET -2.667285919189453 -22.77680206298828 -2.8660287857055664
                            CHANNELS 3 Zrotation Yrotation Xrotation

                            JOINT left_wrist
                            {
                                OFFSET -10.212587356567383 -24.45562744140625 8.054533004760742
                                CHANNELS 3 Zrotation Yrotation Xrotation

                                End Site
                                {
                                    OFFSET 0 0 0
                                }
                            }
                        }
                    }
                }

                JOINT right_collar
                {
                    OFFSET 7.452022552490234 9.883255004882812 -2.704968214035034
                    CHANNELS 3 Zrotation Yrotation Xrotation

                    JOINT right_shoulder
                    {
                        OFFSET 12.089519500732422 -0.593048095703125 -2.125288248062134
                        CHANNELS 3 Zrotation Yrotation Xrotation

                        JOINT right_elbow
                        {
                            OFFSET 4.625143051147461 -22.997474670410156 -1.8497662544250488
                            CHANNELS 3 Zrotation Yrotation Xrotation

                            JOINT right_wrist
                            {
                                OFFSET 8.756696701049805 -24.550880432128906 10.317989349365234
                                CHANNELS 3 Zrotation Yrotation Xrotation

                                End Site
                                {
                                    OFFSET 0 0 0
                                }
                            }
                        }
                    }
                }

                JOINT neck
                {
                    OFFSET 0.04522228240966797 21.066513061523438 -3.3658430576324463
                    CHANNELS 3 Zrotation Yrotation Xrotation

                    JOINT head
                    {
                        OFFSET -1.1817986965179443 10.548736572265625 7.637044906616211
                        CHANNELS 3 Zrotation Yrotation Xrotation

                        End Site
                        {
                            OFFSET 0 0 0
                        }
                    }
                }
            }
        }
    }

}

MOTION
Frames: 16
Frame Time: 0.050000
15.730135 96.821518 160.970810 0.000000 0.000000 -0.000000 -14.712935 -9.511620 -35.687377 4.496582 12.358252 67.658906 66.573949 -1.355784 1.983204 0.000000 0.000000 -0.000000 -9.708566 -9.301231 -3.269241 0.972227 3.318330 7.716435 48.443872 -1.436567 -6.186002 0.000000 0.000000 -0.000000 -6.866486 5.406133 1.383760 -3.728704 4.836550 -5.007725 0.000000 0.000000 -0.000000 -7.940221 -0.536741 10.935970 -33.069037 -35.837386 1.476076 -7.456871 9.356884 31.615720 0.000000 0.000000 -0.000000 5.191228 -4.165611 6.320480 29.251006 27.369575 4.050621 13.503394 2.199033 33.663629 0.000000 0.000000 -0.000000 4.562122 -3.011537 11.419878 0.000000 0.000000 -0.000000
15.896996 96.892479 163.813705 0.000000 0.000000 -0.000000 -11.768010 -7.670866 -38.938700 5.546632 5.263417 55.371507 49.415227 -2.340031 -0.667426 0.000000 0.000000 -0.000000 -9.276595 -9.576096 -0.724981 1.434225 3.343881 6.956808 50.342856 -0.946552 -7.816286 0.000000 0.000000 -0.000000 -8.116833 6.574239 0.662705 -4.024763 5.446814 -4.674338 0.000000 0.000000 -0.000000 -7.837814 -0.083023 10.806209 -33.200269 -35.948459 1.999964 -7.377631 10.143787 32.050787 0.000000 0.000000 -0.000000 5.031384 -4.328793 6.136172 30.672357 28.335622 2.065746 14.347868 1.758242 34.296402 0.000000 0.000000 -0.000000 5.537529 -3.384442 11.237932 0.000000 0.000000 -0.000000
16.052135 96.676498 166.665115 0.000000 0.000000 -0.000000 -6.740481 -5.208357 -38.881163 4.716314 -1.629674 40.176204 27.802663 -3.768602 -6.640843 0.000000 0.000000 -0.000000 -9.057342 -9.936072 1.336410 1.770111 3.568927 7.128642 52.632671 -0.542368 -9.974816 0.000000 0.000000 -0.000000 -9.547808 7.934043 -0.100048 -4.319438 6.152949 -4.377817 0.000000 0.000000 -0.000000 -7.899084 -0.172752 10.888628 -33.073438 -35.948836 2.235154 -7.080883 11.174601 32.228156 0.000000 0.000000 -0.000000 4.591781 -4.844231 5.632155 32.264049 29.392559 0.614013 14.706661 1.154844 34.584266 0.000000 0.000000 -0.000000 5.417664 -3.333852 11.163482 0.000000 0.000000 -0.000000
16.160110 96.111504 169.611115 0.000000 0.000000 -0.000000 -2.288302 -2.987884 -36.479701 3.839556 -4.131853 25.095484 5.673341 -5.004987 -14.458648 0.000000 0.000000 -0.000000 -9.021629 -10.470858 3.271673 2.081823 3.969213 7.758985 55.945925 -0.148314 -12.589650 0.000000 0.000000 -0.000000 -10.660858 9.098996 -1.011205 -4.999955 6.930672 -3.956255 0.000000 0.000000 -0.000000 -8.225430 -0.603322 11.330218 -32.982142 -36.008225 2.134804 -6.707608 11.896323 32.125145 0.000000 0.000000 -0.000000 4.046434 -5.343361 5.004706 33.698852 30.320069 -0.541258 14.693991 0.330261 34.660353 0.000000 0.000000 -0.000000 4.624201 -3.031066 11.334132 0.000000 0.000000 -0.000000
16.203352 95.286407 172.704422 0.000000 0.000000 -0.000000 1.066844 -1.103597 -33.718456 4.004184 -3.638953 12.639088 -16.786487 -5.579794 -21.736119 0.000000 0.000000 -0.000000 -9.028715 -11.095908 5.275872 2.469108 4.468474 8.212184 59.894931 0.194659 -15.394498 0.000000 0.000000 -0.000000 -11.111410 9.778443 -2.125851 -6.119891 7.675339 -3.426438 0.000000 0.000000 -0.000000 -8.678237 -1.168100 11.947305 -33.284922 -36.579249 1.908111 -6.296560 12.541321 31.894817 0.000000 0.000000 -0.000000 3.470291 -5.806611 4.341792 34.979541 31.130252 -1.445767 14.760082 -0.332677 34.811934 0.000000 0.000000 -0.000000 4.276532 -2.910917 11.608656 0.000000 0.000000 -0.000000
16.154238 94.564384 175.981750 0.000000 0.000000 -0.000000 3.481628 0.351355 -32.195979 4.529997 -2.863308 7.126919 -27.157110 -5.823213 -25.406170 0.000000 0.000000 -0.000000 -9.061334 -11.703188 7.053625 2.720002 4.815739 8.560865 62.552854 0.385735 -17.594634 0.000000 0.000000 -0.000000 -11.106780 9.990503 -2.931845 -6.936896 8.106260 -3.182872 0.000000 0.000000 -0.000000 -8.965106 -1.600969 12.338982 -33.649787 -37.373550 2.082034 -6.100934 12.941459 31.827095 0.000000 0.000000 -0.000000 3.017761 -6.291652 3.826479 36.050385 31.753596 -2.036325 15.080011 -0.669630 35.215244 0.000000 0.000000 -0.000000 4.129075 -2.859312 11.705213 0.000000 0.000000 -0.000000
16.017536 93.725037 179.494843 0.000000 0.000000 -0.000000 6.343734 2.165683 -30.642426 3.596219 -3.176211 4.315787 -33.695884 -6.054411 -26.100803 0.000000 0.000000 -0.000000 -8.932217 -12.249933 9.178399 2.854631 5.009710 9.012404 69.211711 1.548340 -19.747494 0.000000 0.000000 -0.000000 -10.764854 9.839576 -3.500609 -7.862881 8.336746 -1.941682 0.000000 0.000000 -0.000000 -9.073368 -1.951105 12.483959 -34.663741 -39.052368 2.368582 -6.479379 13.851627 32.394661 0.000000 0.000000 -0.000000 2.989728 -6.875106 3.813079 37.513182 32.486716 -2.960500 15.828305 -0.869976 36.111576 0.000000 0.000000 -0.000000 3.439574 -2.569507 11.381749 0.000000 0.000000 -0.000000
15.818922 92.996513 183.286942 0.000000 0.000000 -0.000000 7.211120 2.828322 -29.467836 3.526029 -3.252746 5.178176 -23.610052 -6.012955 -25.275527 0.000000 0.000000 -0.000000 -8.746967 -12.763237 11.358038 3.063916 5.180282 9.074446 66.841037 1.839873 -20.804269 0.000000 0.000000 -0.000000 -10.186788 9.320760 -3.486259 -7.537070 7.961706 -2.222043 0.000000 0.000000 -0.000000 -9.020710 -2.108932 12.407310 -34.935008 -39.932415 3.158143 -6.614818 14.028585 32.614617 0.000000 0.000000 -0.000000 3.184246 -7.367456 4.056862 38.320053 32.876058 -3.163635 15.590936 -1.478794 36.423983 0.000000 0.000000 -0.000000 3.921076 -2.720078 10.772253 0.000000 0.000000 -0.000000
15.622478 92.428520 187.431549 0.000000 0.000000 -0.000000 7.906000 3.458249 -27.952738 2.629816 -4.057970 6.900957 -10.497282 -5.502594 -23.447272 0.000000 0.000000 -0.000000 -8.364992 -13.132914 13.825903 3.168459 5.237178 9.376081 57.306564 1.771646 -20.699829 0.000000 0.000000 -0.000000 -9.386210 8.525779 -3.147918 -6.956653 7.335022 -2.391487 0.000000 0.000000 -0.000000 -8.756417 -2.198020 12.035079 -34.993564 -40.836416 4.497485 -6.600333 14.065753 32.701256 0.000000 0.000000 -0.000000 3.755014 -7.786036 4.737251 38.653358 33.010592 -2.865202 15.049447 -1.971283 36.544538 0.000000 0.000000 -0.000000 4.989577 -3.101193 9.929448 0.000000 0.000000 -0.000000
15.434649 92.439980 191.931595 0.000000 0.000000 -0.000000 8.350905 4.027432 -25.958517 1.376695 -5.170613 8.580408 3.777486 -4.619308 -21.715903 0.000000 0.000000 -0.000000 -7.605208 -13.069259 16.558444 3.103765 5.043273 10.046947 36.631849 0.295925 -18.185819 0.000000 0.000000 -0.000000 -8.309388 7.469393 -2.680687 -5.812994 6.311602 -2.297284 0.000000 0.000000 -0.000000 -8.211947 -1.995388 11.276909 -35.212143 -41.767001 5.717651 -6.915093 14.107327 33.058563 0.000000 0.000000 -0.000000 4.871662 -7.846581 6.044199 38.387219 32.873257 -2.135303 14.082036 -2.878051 36.635882 0.000000 0.000000 -0.000000 6.749123 -3.797407 9.420018 0.000000 0.000000 -0.000000
15.255843 93.335533 196.660873 0.000000 0.000000 -0.000000 8.101672 4.352362 -22.653318 1.113346 -4.915730 8.520968 14.856056 -4.454437 -20.988841 0.000000 0.000000 -0.000000 -6.351599 -11.826305 18.144334 2.287440 4.288238 13.214955 8.918644 -3.866582 -11.588521 0.000000 0.000000 -0.000000 -6.831249 6.107521 -2.330207 -3.845969 4.796416 -2.353826 0.000000 0.000000 -0.000000 -7.290621 -1.330917 10.009021 -35.602595 -42.503919 6.579914 -7.871002 14.097150 33.964546 0.000000 0.000000 -0.000000 6.547775 -7.517035 7.997444 37.543204 32.288583 -1.226801 13.153922 -3.729109 36.816047 0.000000 0.000000 -0.000000 8.948308 -4.697367 9.282280 0.000000 0.000000 -0.000000
15.144110 94.403580 201.454926 0.000000 0.000000 -0.000000 7.628092 4.486948 -19.507089 0.985665 -4.419106 7.992484 20.751004 -4.476320 -20.043356 0.000000 0.000000 -0.000000 -5.418745 -10.109406 17.021265 1.016035 3.507220 19.001057 -2.046655 -6.580051 -4.587385 0.000000 0.000000 -0.000000 -5.539236 4.936445 -2.040570 -2.612094 3.705129 -2.411072 0.000000 0.000000 -0.000000 -6.575064 -0.798582 9.032089 -35.605722 -42.436370 6.841509 -8.552531 13.967780 34.576904 0.000000 0.000000 -0.000000 8.088797 -6.988153 9.793782 36.834977 31.802390 -0.569943 12.174682 -4.178147 36.440442 0.000000 0.000000 -0.000000 11.027082 -5.553864 8.974104 0.000000 0.000000 -0.000000
15.199171 95.254410 205.984238 0.000000 0.000000 -0.000000 6.792722 4.459858 -15.398580 1.160902 -3.199450 6.416330 21.213878 -5.932568 -18.581094 0.000000 0.000000 -0.000000 -3.997302 -6.888984 12.441583 -0.918712 1.694941 29.566751 -9.611491 -10.070515 5.726780 0.000000 0.000000 -0.000000 -4.414852 3.934247 -1.820765 -2.195507 3.024942 -2.193867 0.000000 0.000000 -0.000000 -6.103132 -0.914965 8.371853 -34.671086 -41.851379 7.670013 -8.462300 12.950170 34.243899 0.000000 0.000000 -0.000000 9.959665 -6.272131 11.982036 36.163936 31.218543 -0.111092 11.499771 -3.874985 35.998792 0.000000 0.000000 -0.000000 12.870956 -6.315102 9.008457 0.000000 0.000000 -0.000000
15.393111 95.918823 209.990814 0.000000 0.000000 -0.000000 6.229179 4.579553 -11.430386 0.925976 -2.313459 4.484103 20.270403 -7.518623 -17.164896 0.000000 0.000000 -0.000000 -1.409903 -2.291016 5.398383 -2.259649 -1.763168 43.505447 -6.489035 -7.844927 10.529274 0.000000 0.000000 -0.000000 -4.072683 3.495280 -0.890300 -1.309852 2.495472 -2.216197 0.000000 0.000000 -0.000000 -5.809970 -1.502823 7.938434 -33.764599 -41.815194 8.931809 -7.109929 12.904563 32.957607 0.000000 0.000000 -0.000000 10.752078 -5.600332 12.908949 35.925323 31.581967 0.833639 11.189084 -3.592630 35.791764 0.000000 0.000000 -0.000000 12.426325 -6.125077 9.284950 0.000000 0.000000 -0.000000
15.679070 96.212273 213.531372 0.000000 0.000000 -0.000000 5.895250 4.722253 -8.484533 0.605518 -1.938699 3.672921 20.425819 -9.349820 -15.892446 0.000000 0.000000 -0.000000 0.978391 1.329800 -3.184961 -1.923893 -3.214645 57.537532 -1.988949 -2.530832 6.420942 0.000000 0.000000 -0.000000 -4.088723 3.363136 0.045868 -0.767765 2.285770 -2.349783 0.000000 0.000000 -0.000000 -5.668812 -2.413633 7.699360 -32.647195 -41.453855 9.827582 -6.178185 12.447475 31.877613 0.000000 0.000000 -0.000000 10.925931 -5.539205 13.113421 35.838633 31.840266 1.745597 11.317027 -2.800519 35.812300 0.000000 0.000000 -0.000000 10.611141 -5.378957 9.569489 0.000000 0.000000 -0.000000
15.950467 96.376289 216.803146 0.000000 0.000000 -0.000000 5.646397 4.844129 -6.136954 0.537766 -1.525906 3.369924 20.290559 -10.502978 -14.413674 0.000000 0.000000 -0.000000 2.314331 3.205371 -11.624807 -0.931632 -1.353037 67.257623 6.139391 6.234702 -2.375413 0.000000 0.000000 -0.000000 -3.907776 3.102310 0.782584 -0.687922 2.192776 -2.496196 0.000000 0.000000 -0.000000 -5.502265 -3.202691 7.427415 -31.795105 -40.988836 10.033913 -6.066082 11.500003 31.312537 0.000000 0.000000 -0.000000 10.948434 -5.816323 13.141914 35.791734 31.841163 2.412969 11.567176 -2.037361 35.992385 0.000000 0.000000 -0.000000 9.203380 -4.808927 9.994745 0.000000 0.000000 -0.000000
